<svg xmlns="http://www.w3.org/2000/svg" width="1920" viewBox="0 0 1440 450" height="600" version="1.0"><path fill="#c70039" d="M88.031 239.676v58.66H58.703v-146.68h29.328v58.66h63.684v-58.66h29.332v146.68h-29.332v-58.66ZM202.887 298.336l73.34-153.992 73.308 153.992h-33.09l-40.308-84.23-40.34 84.23Zm0 0"/><path fill="#c70039" d="M481.688 298.336H329.32v-29.36h152.368c.96 0 1.917-.093 2.859-.277a14.723 14.723 0 0 0 5.289-2.183c.8-.536 1.543-1.145 2.223-1.825a14.58 14.58 0 0 0 1.824-2.218c.535-.801.988-1.649 1.36-2.536a14.774 14.774 0 0 0 1.116-5.613c0-.96-.093-1.914-.285-2.86a14.685 14.685 0 0 0-.832-2.75 14.782 14.782 0 0 0-1.36-2.534c-.534-.801-1.14-1.54-1.823-2.22a14.423 14.423 0 0 0-2.223-1.823c-.8-.535-1.645-.985-2.535-1.352a14.629 14.629 0 0 0-5.613-1.11h-58.66a43.68 43.68 0 0 1-8.586-.848 44.395 44.395 0 0 1-4.192-1.046 43.064 43.064 0 0 1-4.066-1.457 43.372 43.372 0 0 1-7.606-4.066c-1.2-.801-2.355-1.656-3.473-2.57a44.05 44.05 0 0 1-15.242-25.438 43.767 43.767 0 0 1-.633-4.27 43.099 43.099 0 0 1-.214-4.316c0-1.441.07-2.879.214-4.312a43.845 43.845 0 0 1 3.137-12.528 43.988 43.988 0 0 1 9.54-14.277 44.104 44.104 0 0 1 3.198-2.902 44.563 44.563 0 0 1 3.473-2.575 44.5 44.5 0 0 1 7.605-4.066 44.16 44.16 0 0 1 12.532-3.137c1.433-.14 2.87-.21 4.312-.21h87.989v29.327h-87.989c-.496-.02-.988-.02-1.48.008a14.054 14.054 0 0 0-2.926.465c-.48.125-.95.273-1.414.45a14.952 14.952 0 0 0-2.652 1.313 14.43 14.43 0 0 0-2.336 1.82 14.667 14.667 0 0 0-2.703 3.507c-.239.433-.457.879-.653 1.332a15.138 15.138 0 0 0-.883 2.824c-.097.488-.171.977-.222 1.469-.051.492-.074.984-.074 1.476 0 .497.023.989.074 1.48.05.493.125.981.222 1.47.102.484.223.96.372 1.433.148.473.32.934.511 1.39.196.454.414.9.653 1.333a14.49 14.49 0 0 0 2.703 3.508 14.531 14.531 0 0 0 2.336 1.82 14.952 14.952 0 0 0 2.652 1.313c.465.175.934.324 1.414.449a14.054 14.054 0 0 0 2.926.465c.492.027.984.027 1.48.007h58.66a44.148 44.148 0 0 1 8.586.844 44.04 44.04 0 0 1 4.188 1.05c1.383.419 2.738.903 4.066 1.454a43.807 43.807 0 0 1 7.61 4.07 43.724 43.724 0 0 1 6.672 5.473 44.05 44.05 0 0 1 12.043 22.531c.28 1.414.492 2.84.632 4.274.145 1.433.215 2.87.215 4.312 0 1.442-.07 2.88-.215 4.317a43.767 43.767 0 0 1-1.683 8.46 43.405 43.405 0 0 1-3.3 7.969 43.835 43.835 0 0 1-10.896 13.278 43.724 43.724 0 0 1-3.468 2.57 43.807 43.807 0 0 1-3.703 2.223 43.883 43.883 0 0 1-3.903 1.843 44.04 44.04 0 0 1-8.258 2.508 44.148 44.148 0 0 1-8.586.844ZM625.723 180.984v117.32H596.39v-117.32h-58.66v-29.328h146.652v29.328ZM714.734 151.656h29.328v146.68h-29.328ZM955.063 325.8l-16.278-29.327h-91.207a75.157 75.157 0 0 1-5.39-.207 74.797 74.797 0 0 1-5.364-.602 74.142 74.142 0 0 1-10.52-2.375 75.595 75.595 0 0 1-5.1-1.762 74.787 74.787 0 0 1-4.958-2.129 74.092 74.092 0 0 1-4.785-2.492 72.835 72.835 0 0 1-13.09-9.472 71.692 71.692 0 0 1-3.86-3.77 70.271 70.271 0 0 1-3.573-4.043 72.611 72.611 0 0 1-3.266-4.293 74.66 74.66 0 0 1-2.942-4.523 72.067 72.067 0 0 1-2.601-4.727 75.022 75.022 0 0 1-2.25-4.902 73.482 73.482 0 0 1-3.383-10.238 71.681 71.681 0 0 1-1.121-5.282 74.404 74.404 0 0 1-.73-5.344 75.212 75.212 0 0 1-.336-5.386 75.29 75.29 0 0 1 .062-5.395c.09-1.797.242-3.59.461-5.375.219-1.785.5-3.562.852-5.328a73.146 73.146 0 0 1 7.218-20.262 73.903 73.903 0 0 1 2.711-4.664 71.724 71.724 0 0 1 3.043-4.457 74.265 74.265 0 0 1 7.028-8.175 70.808 70.808 0 0 1 11.035-9.273 71.294 71.294 0 0 1 6.172-3.747 70.967 70.967 0 0 1 13.316-5.512 71.92 71.92 0 0 1 7.012-1.71 70.815 70.815 0 0 1 14.36-1.239h117.32l-14.653 29.332H847.578a44.495 44.495 0 0 0-4.39.102 44.06 44.06 0 0 0-8.641 1.515 43.32 43.32 0 0 0-4.16 1.395 44.892 44.892 0 0 0-4.004 1.8 43.267 43.267 0 0 0-3.805 2.196 42.624 42.624 0 0 0-3.566 2.559 44.782 44.782 0 0 0-3.297 2.902 45.67 45.67 0 0 0-2.988 3.219 44.499 44.499 0 0 0-2.653 3.5 43.546 43.546 0 0 0-2.289 3.742 42.814 42.814 0 0 0-1.906 3.957 43.395 43.395 0 0 0-1.504 4.125 44.65 44.65 0 0 0-1.086 4.254 44.129 44.129 0 0 0-.652 4.343 42.129 42.129 0 0 0-.219 4.387c-.004 1.465.07 2.926.219 4.383.144 1.457.363 2.906.652 4.344a44.65 44.65 0 0 0 1.086 4.254c.43 1.398.934 2.773 1.504 4.125a44.223 44.223 0 0 0 4.195 7.703 45.172 45.172 0 0 0 2.653 3.496 45.67 45.67 0 0 0 2.988 3.219 43.888 43.888 0 0 0 3.297 2.902 42.624 42.624 0 0 0 3.566 2.559 43.804 43.804 0 0 0 7.809 3.996c1.363.535 2.75 1 4.16 1.394a44.06 44.06 0 0 0 8.64 1.516c1.461.105 2.926.14 4.391.101h74.934l-16.274-29.328h-58.66V208.45h73.34l63.926 117.32ZM1161.965 151.656v29.328h-117.32v88.02h117.32v29.332h-146.649v-146.68Zm0 88.02h-80.68v-29.36h80.68ZM1288.16 180.984v117.32h-29.328v-117.32h-58.66v-29.328h146.648v29.328Zm0 0"/></svg>