<svg xmlns="http://www.w3.org/2000/svg" width="1920" viewBox="0 0 1440 450" height="600" version="1.0"><path fill="#fff" d="M111.543 251.766v58.66H82.211v-146.68h29.332v58.66h63.684v-58.66h29.328v146.68h-29.328v-58.66ZM226.395 310.426l73.343-153.988 73.309 153.988h-33.09l-40.312-84.23-40.34 84.23Zm0 0"/><path fill="#fff" d="M505.2 310.426H352.831v-29.36h152.367a14.658 14.658 0 0 0 8.149-2.46c.8-.536 1.543-1.141 2.222-1.825a14.622 14.622 0 0 0 4.016-7.504 14.662 14.662 0 0 0-4.016-13.226c-.68-.68-1.422-1.29-2.222-1.82a14.597 14.597 0 0 0-8.148-2.465h-58.66a43.767 43.767 0 0 1-12.777-1.895 44.16 44.16 0 0 1-4.068-1.453 44.5 44.5 0 0 1-7.61-4.066 43.77 43.77 0 0 1-6.667-5.477 43.724 43.724 0 0 1-5.473-6.668c-.8-1.2-1.543-2.434-2.222-3.703a43.954 43.954 0 0 1-1.844-3.906 44.04 44.04 0 0 1-2.508-8.254 43.845 43.845 0 0 1-.844-8.586 43.767 43.767 0 0 1 1.895-12.777 43.064 43.064 0 0 1 1.457-4.067 43.875 43.875 0 0 1 4.066-7.61 43.724 43.724 0 0 1 5.473-6.667 43.724 43.724 0 0 1 6.668-5.473 43.875 43.875 0 0 1 7.61-4.066 43.064 43.064 0 0 1 4.066-1.457 44.098 44.098 0 0 1 4.191-1.047 43.78 43.78 0 0 1 8.586-.848h87.988v29.332H446.54a13.441 13.441 0 0 0-1.484.008 14.369 14.369 0 0 0-2.922.46c-.48.126-.95.274-1.414.45-.465.172-.918.371-1.36.59a14.392 14.392 0 0 0-2.507 1.574 14.649 14.649 0 0 0-3.825 4.48 14.165 14.165 0 0 0-1.164 2.719c-.148.473-.273.954-.37 1.438-.102.484-.177.973-.223 1.465-.051.492-.079.984-.079 1.48 0 .492.028.988.079 1.48.046.493.12.981.222 1.465.098.485.223.961.371 1.434.145.473.317.938.512 1.39.195.458.41.9.652 1.333.239.433.5.851.782 1.258.28.41.582.8.902 1.175.324.375.66.735 1.02 1.078.359.34.73.665 1.12.97a15.35 15.35 0 0 0 2.508 1.573c.442.22.895.415 1.36.59a14.862 14.862 0 0 0 2.863.754c.488.078.98.13 1.473.156.496.028.988.032 1.484.008h58.66a43.857 43.857 0 0 1 8.586.848 44.02 44.02 0 0 1 4.188 1.047c1.379.418 2.734.902 4.066 1.457a43.954 43.954 0 0 1 3.906 1.844 44.435 44.435 0 0 1 7.172 4.793 45.026 45.026 0 0 1 3.2 2.902 43.724 43.724 0 0 1 5.473 6.668 42.865 42.865 0 0 1 2.222 3.707 44.5 44.5 0 0 1 1.847 3.902 44.16 44.16 0 0 1 3.137 12.528 44.288 44.288 0 0 1 0 8.628 43.845 43.845 0 0 1-3.137 12.528 45.112 45.112 0 0 1-1.847 3.906 43.771 43.771 0 0 1-7.695 10.371 44.103 44.103 0 0 1-6.669 5.477c-1.199.8-2.433 1.539-3.703 2.218a45.112 45.112 0 0 1-3.906 1.848 44.16 44.16 0 0 1-12.527 3.137c-1.434.14-2.871.21-4.313.21ZM649.23 193.078v117.32h-29.328v-117.32h-58.66v-29.332h146.649v29.332ZM738.246 163.746h29.328v146.68h-29.328ZM978.57 337.89l-16.273-29.327h-91.211a73.118 73.118 0 0 1-10.75-.81 71.65 71.65 0 0 1-5.305-.995 72.614 72.614 0 0 1-10.316-3.14 73.053 73.053 0 0 1-14.336-7.454 73.915 73.915 0 0 1-4.371-3.16 73.202 73.202 0 0 1-7.984-7.246 73.003 73.003 0 0 1-6.84-8.34 69.907 69.907 0 0 1-2.942-4.52 76.182 76.182 0 0 1-2.605-4.726 73.07 73.07 0 0 1-2.246-4.906 74.821 74.821 0 0 1-1.883-5.059 74.084 74.084 0 0 1-1.504-5.18 73.631 73.631 0 0 1-1.117-5.277 70.338 70.338 0 0 1-.73-5.348 72.904 72.904 0 0 1-.274-10.78 72.958 72.958 0 0 1 1.308-10.704 74.077 74.077 0 0 1 2.863-10.395 71.963 71.963 0 0 1 2-5.011 73.06 73.06 0 0 1 11.477-18.191 73.16 73.16 0 0 1 3.664-3.962 70.808 70.808 0 0 1 11.035-9.273 70.807 70.807 0 0 1 33.645-11.953 70.565 70.565 0 0 1 7.21-.25h117.321l-14.648 29.328H871.086a44.274 44.274 0 0 0-8.746.645 44.629 44.629 0 0 0-4.281.972c-1.41.399-2.797.863-4.164 1.395a44.32 44.32 0 0 0-7.81 3.996 44.924 44.924 0 0 0-3.565 2.558 44.667 44.667 0 0 0-6.282 6.121 43.561 43.561 0 0 0-2.652 3.5 43.652 43.652 0 0 0-2.293 3.747 44.161 44.161 0 0 0-3.41 8.082 44.04 44.04 0 0 0-1.082 4.253 45.076 45.076 0 0 0-.656 4.34 44.514 44.514 0 0 0-.22 4.387c0 1.465.075 2.926.22 4.387.148 1.457.367 2.902.656 4.34a43.687 43.687 0 0 0 2.586 8.379 44.39 44.39 0 0 0 1.906 3.957 44.264 44.264 0 0 0 4.945 7.246 43.832 43.832 0 0 0 2.989 3.214 43.726 43.726 0 0 0 3.293 2.903 44.97 44.97 0 0 0 3.566 2.562c1.234.793 2.5 1.524 3.805 2.192 1.304.668 2.64 1.27 4.004 1.8 1.367.536 2.753 1 4.164 1.395a44.285 44.285 0 0 0 8.64 1.516c1.461.109 2.922.14 4.387.105h74.937l-16.277-29.332h-58.66v-29.328h73.344l63.922 117.32ZM1185.477 163.746v29.332h-117.32v88.02h117.32v29.328h-146.653v-146.68Zm0 88.02h-80.68v-29.36h80.68ZM1311.672 193.078v117.32h-29.332v-117.32h-58.66v-29.332h146.652v29.332Zm0 0"/></svg>